<?xml version="1.0" standalone="no"?>
<!DOCTYPE svg PUBLIC "-//W3C//DTD SVG 20010904//EN"
 "http://www.w3.org/TR/2001/REC-SVG-20010904/DTD/svg10.dtd">
<svg version="1.0" xmlns="http://www.w3.org/2000/svg"
 width="460.000000pt" height="460.000000pt" viewBox="0 0 460.000000 460.000000"
 preserveAspectRatio="xMidYMid meet">
<metadata>
Created by potrace 1.14, written by Peter Selinger 2001-2017
</metadata>
<g transform="translate(0.000000,460.000000) scale(0.100000,-0.100000)"
fill="#000000" stroke="none">
<path d="M1305 4149 c-16 -5 -55 -8 -85 -7 -30 1 -65 -4 -77 -10 -12 -7 -34
-12 -49 -12 -15 0 -51 -13 -81 -30 -29 -16 -61 -30 -70 -30 -28 0 -181 -130
-247 -208 -113 -135 -172 -259 -206 -437 -24 -128 -32 -203 -31 -278 3 -81
-11 -119 -59 -162 -33 -30 -96 -127 -110 -170 -7 -22 -21 -51 -31 -64 -11 -13
-19 -30 -19 -37 0 -7 -9 -28 -19 -46 -85 -146 -136 -397 -127 -633 10 -282 8
-263 53 -355 30 -61 40 -93 36 -113 -3 -17 3 -45 20 -80 13 -28 27 -63 31 -77
3 -14 28 -48 56 -76 28 -28 69 -80 93 -116 40 -62 156 -178 177 -178 6 0 15
-11 20 -24 10 -28 102 -100 140 -111 14 -4 61 -27 105 -52 44 -25 96 -47 115
-50 19 -3 44 -14 56 -25 22 -20 104 -54 169 -69 21 -6 44 -14 50 -19 6 -5 38
-16 71 -24 32 -7 79 -23 104 -35 25 -11 63 -21 86 -21 22 0 44 -4 50 -9 19
-19 158 -39 209 -31 38 6 54 5 66 -7 9 -8 56 -21 104 -28 48 -8 97 -17 109
-21 11 -4 86 -8 166 -10 135 -2 251 -12 326 -29 22 -5 45 -1 75 12 33 14 55
17 90 12 87 -13 246 3 309 30 14 6 57 15 95 21 39 5 90 13 115 18 25 6 70 15
100 21 30 6 109 38 176 71 66 33 126 60 134 60 7 0 23 8 34 19 12 10 66 42
121 71 55 29 110 64 122 77 12 12 27 23 33 23 16 0 122 108 148 151 12 19 33
41 46 47 14 6 34 29 46 52 11 22 24 40 29 40 16 0 91 128 91 156 0 15 6 35 14
43 18 20 55 156 65 241 5 36 11 72 15 80 3 8 10 52 16 98 8 69 7 90 -5 120 -9
20 -13 43 -10 51 10 24 6 180 -4 215 -5 17 -16 54 -25 82 -9 29 -16 68 -16 89
0 20 -6 51 -13 68 -8 18 -21 48 -29 67 -15 34 -15 36 28 117 24 45 44 93 44
107 0 14 6 40 14 58 47 111 52 276 12 388 -9 25 -16 52 -16 62 0 9 -11 40 -25
70 -14 29 -25 65 -25 79 0 35 -34 110 -60 134 -11 10 -20 26 -20 36 0 9 -17
31 -37 49 -20 18 -57 56 -82 86 -25 29 -62 63 -81 76 -70 46 -221 112 -295
130 -22 5 -51 16 -65 25 -27 18 -323 43 -430 37 -77 -4 -149 -19 -162 -32 -7
-7 -26 -12 -43 -12 -17 0 -46 -11 -65 -25 -19 -14 -40 -25 -48 -25 -8 0 -26
-8 -40 -18 -15 -10 -46 -24 -70 -32 -24 -7 -48 -22 -53 -32 -14 -26 -86 -62
-139 -69 -27 -4 -67 -1 -100 8 -30 7 -73 13 -95 13 -22 0 -84 6 -138 14 -54 9
-107 15 -117 13 -18 -2 -54 39 -86 99 -9 17 -31 39 -50 47 -18 9 -41 28 -50
42 -9 15 -38 37 -63 51 -25 13 -53 28 -61 33 -30 19 -106 50 -135 56 -16 4
-46 12 -65 20 -37 14 -202 44 -235 43 -11 0 -36 2 -55 5 -19 3 -48 1 -65 -4z
m65 -185 c134 -6 182 -12 193 -23 6 -6 26 -11 45 -11 18 0 43 -6 55 -12 12 -7
36 -17 52 -23 17 -5 62 -28 100 -49 69 -39 108 -83 158 -181 29 -57 63 -80
115 -78 26 1 51 -2 57 -6 19 -16 373 -53 505 -54 46 -1 140 37 163 65 24 29
176 118 202 118 11 0 34 7 50 16 32 17 149 43 225 50 183 17 198 17 252 -10
29 -14 63 -26 77 -26 25 0 114 -31 156 -53 11 -6 45 -24 75 -41 58 -31 200
-143 200 -157 0 -5 12 -23 28 -41 15 -18 38 -53 51 -78 13 -25 31 -53 39 -62
32 -38 40 -124 31 -359 -4 -105 -9 -143 -22 -162 -9 -15 -17 -35 -17 -45 0
-10 -13 -43 -30 -73 -37 -67 -39 -139 -9 -274 11 -49 20 -108 20 -130 0 -22 9
-66 20 -98 10 -31 19 -73 19 -93 0 -19 9 -57 21 -84 17 -41 19 -52 8 -72 -7
-12 -15 -70 -17 -128 -3 -66 -10 -112 -18 -125 -8 -11 -14 -38 -14 -61 0 -22
-9 -67 -20 -99 -11 -32 -20 -64 -20 -71 0 -16 -82 -140 -120 -181 -17 -18 -30
-41 -30 -51 0 -10 -18 -30 -44 -46 -25 -15 -73 -54 -108 -87 -35 -32 -67 -59
-71 -59 -8 0 -25 -12 -98 -69 -68 -54 -251 -143 -329 -161 -30 -7 -64 -17 -75
-23 -35 -19 -119 -46 -145 -47 -14 0 -33 -7 -44 -15 -21 -16 -84 -25 -201 -30
-83 -3 -175 -18 -219 -35 -18 -7 -35 -5 -61 6 -29 12 -65 14 -163 10 -95 -3
-137 -1 -167 10 -64 23 -220 44 -358 48 -89 3 -135 9 -150 19 -12 8 -49 19
-82 26 -33 6 -78 15 -100 20 -22 5 -67 14 -100 20 -33 7 -76 20 -95 30 -19 10
-51 22 -70 26 -19 4 -58 18 -86 31 -28 13 -73 29 -100 36 -27 6 -60 22 -74 34
-41 35 -155 94 -183 94 -14 0 -29 5 -32 10 -9 14 -113 80 -126 80 -6 0 -32 24
-57 53 -26 28 -75 81 -109 116 -36 36 -77 92 -95 128 -59 116 -83 158 -104
188 -17 24 -23 52 -29 135 -5 65 -13 116 -24 135 -13 25 -16 61 -14 217 2 180
3 188 31 260 16 40 40 100 52 133 38 102 87 199 109 219 12 11 21 23 21 27 0
11 85 137 112 166 11 12 31 45 44 73 21 46 23 62 19 137 -3 57 0 95 9 117 7
17 16 60 20 96 16 148 53 249 121 335 18 22 39 54 48 71 18 36 124 134 144
134 7 0 27 13 45 28 33 29 93 50 158 57 19 1 46 8 60 14 14 5 34 7 45 4 11 -3
45 -7 75 -9z"/>
<path d="M1342 2779 c-50 -15 -118 -93 -165 -189 -22 -47 -49 -96 -59 -110
-22 -31 -27 -161 -8 -202 15 -32 82 -68 126 -68 58 1 109 51 183 178 54 93 69
136 77 226 6 67 4 78 -16 111 -13 21 -38 44 -56 51 -38 16 -37 16 -82 3z"/>
<path d="M2420 2619 c-34 -14 -56 -35 -101 -96 -35 -46 -50 -75 -106 -203 -23
-51 -41 -123 -38 -151 1 -13 3 -34 4 -46 1 -30 44 -77 86 -97 34 -17 38 -16
98 4 76 26 93 41 124 105 13 28 36 73 52 100 16 28 32 66 36 85 3 19 14 54 22
78 18 49 12 131 -12 168 -27 42 -120 72 -165 53z"/>
</g>
</svg>
