<?xml version="1.0" standalone="no"?>
<!DOCTYPE svg PUBLIC "-//W3C//DTD SVG 20010904//EN"
 "http://www.w3.org/TR/2001/REC-SVG-20010904/DTD/svg10.dtd">
<svg version="1.0" xmlns="http://www.w3.org/2000/svg"
 width="615.000000pt" height="615.000000pt" viewBox="0 0 615.000000 615.000000"
 preserveAspectRatio="xMidYMid meet">
<metadata>
Created by potrace 1.14, written by Peter Selinger 2001-2017
</metadata>
<g transform="translate(0.000000,615.000000) scale(0.100000,-0.100000)"
fill="#000000" stroke="none">
<path d="M1537 5309 c-22 -5 -50 -18 -64 -29 -17 -13 -41 -20 -72 -20 -55 0
-134 -28 -205 -74 -69 -44 -171 -148 -202 -205 -13 -25 -40 -75 -60 -111 -65
-119 -82 -193 -80 -350 2 -138 -5 -163 -53 -195 -16 -10 -39 -35 -50 -55 -11
-19 -38 -53 -61 -75 -71 -68 -132 -163 -142 -218 -7 -34 -21 -64 -43 -89 -31
-37 -105 -201 -105 -236 0 -9 -16 -41 -35 -71 -19 -30 -38 -71 -41 -90 -4 -20
-15 -50 -25 -67 -63 -104 -75 -205 -78 -611 0 -52 21 -155 43 -205 9 -21 16
-66 16 -100 1 -35 7 -94 14 -133 37 -192 49 -243 66 -275 27 -54 50 -110 50
-121 0 -18 79 -179 88 -179 5 0 14 -11 20 -24 15 -33 164 -198 193 -214 13 -7
32 -30 43 -51 10 -21 38 -54 63 -72 127 -96 151 -110 202 -126 31 -10 72 -27
91 -40 20 -12 51 -26 70 -29 38 -8 97 -41 119 -68 21 -25 76 -45 140 -52 31
-4 62 -12 70 -17 7 -6 36 -14 65 -18 28 -4 78 -15 111 -24 64 -18 174 -40 240
-48 22 -2 53 -10 68 -16 16 -6 56 -11 90 -11 34 0 82 -7 107 -16 39 -14 74
-17 155 -13 11 1 46 -6 78 -15 32 -9 74 -16 93 -16 19 0 47 -9 62 -20 19 -14
39 -20 63 -17 19 2 75 1 124 -3 61 -5 100 -3 120 5 17 7 39 9 50 5 11 -4 67
-6 125 -4 58 1 130 3 161 3 30 0 93 5 140 12 46 7 115 13 153 15 37 1 89 5
115 8 25 3 86 8 134 11 49 3 97 10 108 16 11 5 23 8 28 5 14 -9 172 21 236 44
33 12 110 29 170 37 107 14 297 65 323 85 7 6 33 15 59 19 26 5 64 18 85 29
21 11 49 20 61 20 26 1 129 46 171 75 16 11 44 35 64 53 19 17 45 32 56 32 33
0 128 67 166 118 19 25 59 71 88 102 28 31 52 62 52 69 0 7 13 25 28 39 45 43
70 85 112 185 39 95 80 243 80 292 0 14 5 36 12 48 15 29 27 88 34 167 3 36
10 79 15 97 6 18 7 52 4 76 -5 30 -2 55 10 82 8 22 16 60 16 85 -1 25 2 79 4
120 10 138 6 248 -10 292 -9 24 -18 75 -20 113 -3 64 -41 200 -63 229 -5 6
-12 24 -16 40 -4 17 -15 41 -25 55 -10 14 -22 42 -26 61 -10 44 -53 147 -77
182 -10 15 -24 42 -30 60 -6 18 -23 49 -37 68 -15 19 -37 56 -50 82 -14 30
-41 60 -75 87 -47 35 -54 45 -58 81 -2 22 1 48 6 58 5 9 11 44 13 77 1 33 5
89 7 125 5 78 -9 186 -28 214 -7 12 -16 37 -20 57 -16 89 -214 319 -316 368
-70 34 -108 58 -145 92 -43 40 -91 56 -170 58 -38 0 -95 5 -125 10 -41 6 -66
5 -100 -6 -25 -8 -77 -18 -117 -22 -42 -5 -84 -16 -100 -27 -15 -10 -59 -29
-97 -41 -39 -13 -77 -30 -85 -37 -9 -8 -41 -26 -71 -41 -56 -27 -150 -110
-150 -131 0 -6 -13 -17 -29 -24 -16 -6 -39 -22 -52 -36 -24 -26 -49 -30 -80
-14 -19 11 -60 20 -174 41 -63 12 -109 15 -396 25 l-176 6 -53 -27 c-46 -23
-61 -26 -99 -20 -127 21 -217 12 -257 -26 -13 -12 -25 -21 -27 -18 -1 2 -14
28 -27 56 -13 29 -32 61 -43 70 -10 10 -28 36 -39 57 -28 56 -125 144 -166
152 -19 4 -40 17 -48 30 -20 29 -111 64 -168 64 -24 0 -63 9 -87 20 -36 16
-65 19 -154 19 -60 -1 -127 -5 -148 -10z m358 -289 c21 -16 48 -30 61 -30 25
0 94 -62 94 -84 0 -8 8 -20 17 -27 9 -8 31 -45 49 -84 53 -112 156 -207 207
-190 39 13 102 19 175 17 87 -2 156 14 220 51 32 19 35 19 95 3 48 -13 103
-17 242 -16 182 1 306 -9 380 -30 22 -6 58 -16 80 -21 22 -5 58 -17 80 -25 43
-17 145 -13 198 8 31 12 128 108 139 138 3 10 25 31 48 46 22 16 53 40 67 53
15 13 45 31 67 41 23 9 59 29 80 44 21 14 52 26 68 26 16 0 41 6 56 14 41 21
242 29 266 10 11 -7 27 -14 36 -14 29 0 113 -49 151 -88 20 -20 51 -49 70 -63
19 -14 60 -64 91 -111 l58 -86 9 -104 c5 -56 5 -113 0 -125 -4 -12 -8 -62 -8
-110 1 -108 26 -182 72 -217 24 -18 37 -41 50 -86 11 -38 30 -75 52 -99 19
-21 35 -45 35 -52 0 -8 10 -30 22 -49 12 -19 37 -71 54 -115 58 -146 76 -189
105 -250 16 -33 33 -83 38 -111 5 -27 18 -72 28 -100 17 -44 19 -77 18 -304
-2 -213 -5 -261 -19 -294 -9 -22 -16 -56 -15 -75 1 -34 -29 -207 -52 -296 -57
-226 -95 -308 -191 -412 -26 -28 -48 -56 -48 -61 0 -5 -37 -48 -82 -94 -77
-79 -86 -86 -131 -90 -37 -4 -56 -13 -79 -37 -17 -17 -37 -31 -44 -31 -8 0
-32 -16 -54 -37 -40 -36 -130 -72 -215 -88 -21 -4 -53 -14 -70 -23 -49 -26
-158 -62 -187 -62 -15 0 -45 -6 -65 -14 -21 -8 -62 -17 -91 -20 -29 -4 -64
-13 -76 -22 -17 -11 -43 -14 -96 -11 -44 2 -81 -2 -95 -9 -23 -12 -60 -16
-235 -28 -41 -3 -97 -8 -125 -11 -216 -22 -339 -25 -480 -14 -77 7 -167 13
-200 14 -213 6 -425 30 -490 55 -15 6 -43 10 -63 10 -51 0 -144 18 -237 46
-44 13 -120 30 -170 39 -136 23 -213 39 -221 48 -4 4 -21 7 -39 7 -17 0 -35 4
-41 9 -5 5 -52 21 -103 36 -52 15 -103 31 -113 36 -11 6 -42 12 -70 14 -33 2
-61 12 -77 24 -14 12 -47 32 -72 45 -60 32 -103 69 -128 110 -11 18 -32 38
-46 46 -14 7 -36 33 -50 56 -23 40 -49 73 -141 179 -19 22 -34 45 -34 51 0 5
-8 19 -18 30 -47 54 -57 83 -116 360 -13 61 -36 142 -51 180 -22 55 -28 88
-31 178 -3 61 -12 134 -20 162 -22 72 -3 220 45 358 12 33 21 66 21 74 0 8 13
36 29 61 17 25 35 67 41 94 5 26 24 66 40 89 17 22 30 50 30 61 0 11 9 34 19
51 11 17 24 60 30 95 8 48 18 72 43 101 18 20 50 62 70 91 76 110 83 119 99
124 8 3 26 24 40 46 13 23 35 52 48 65 13 13 39 47 57 76 30 46 34 60 34 120
0 39 -7 85 -16 108 -14 34 -15 48 -4 88 27 104 73 190 159 300 34 43 59 61
139 100 83 41 103 47 135 41 21 -3 55 -3 76 1 21 4 71 8 112 9 40 1 76 4 78 7
13 12 53 0 86 -26z"/>
<path d="M1895 3707 c-45 -8 -107 -33 -175 -72 -38 -22 -44 -52 -20 -102 11
-23 20 -47 20 -52 0 -15 79 -58 120 -66 19 -4 65 -16 103 -27 37 -11 74 -18
82 -14 8 3 17 1 20 -4 9 -14 172 -3 277 19 61 13 112 30 137 46 34 23 40 32
43 72 6 78 -8 102 -87 145 -39 20 -102 44 -140 52 -77 16 -297 18 -380 3z"/>
<path d="M3735 3640 c-124 -6 -192 -25 -257 -71 -25 -18 -28 -26 -28 -76 0
-45 5 -63 26 -90 14 -18 30 -33 35 -33 6 0 25 -11 43 -25 18 -14 42 -25 53
-25 10 0 54 -9 97 -20 112 -30 262 -36 360 -15 75 15 136 41 136 56 0 4 10 9
22 11 28 4 62 61 54 91 -14 56 -129 157 -180 157 -17 0 -51 7 -75 16 -24 8
-65 16 -90 18 -25 2 -53 6 -61 8 -8 2 -69 1 -135 -2z"/>
<path d="M2825 3317 c-46 -26 -66 -59 -63 -102 3 -25 11 -34 53 -55 43 -22 62
-25 135 -23 182 5 240 23 254 78 5 19 0 35 -19 59 -41 53 -75 64 -205 65 -102
1 -119 -1 -155 -22z"/>
<path d="M1690 3280 c-49 -9 -116 -45 -134 -72 -22 -31 -20 -74 4 -113 34 -55
97 -70 300 -69 166 0 213 11 235 54 30 58 13 134 -34 159 -70 38 -275 61 -371
41z"/>
<path d="M4007 3158 c-93 -13 -150 -70 -149 -151 1 -34 7 -47 32 -69 16 -16
43 -29 58 -29 15 -1 36 -2 47 -3 11 -1 31 -9 45 -18 33 -22 255 -29 310 -10
40 13 70 56 70 96 0 60 -56 136 -99 136 -9 0 -42 13 -74 30 -49 25 -67 29
-125 27 -37 -1 -88 -5 -115 -9z"/>
</g>
</svg>
